<mxfile host="Electron" agent="Mozilla/5.0 (X11; Linux x86_64) AppleWebKit/537.36 (KHTML, like Gecko) draw.io/27.0.5 Chrome/134.0.6998.205 Electron/35.3.0 Safari/537.36" version="27.0.5" pages="2">
  <diagram name="Pipeline" id="z0Kgt69WZF_MeeYbzNVD">
    <mxGraphModel dx="1426" dy="844" grid="1" gridSize="10" guides="1" tooltips="1" connect="1" arrows="1" fold="1" page="1" pageScale="1" pageWidth="850" pageHeight="1100" math="0" shadow="0">
      <root>
        <mxCell id="0" />
        <mxCell id="1" parent="0" />
        <mxCell id="7oJZuq8xsSSL-06THOBG-11" value="" style="rounded=0;whiteSpace=wrap;html=1;fillColor=none;dashed=1;strokeColor=#82b366;" vertex="1" parent="1">
          <mxGeometry y="40" width="200" height="160" as="geometry" />
        </mxCell>
        <mxCell id="7oJZuq8xsSSL-06THOBG-9" value="" style="rounded=0;whiteSpace=wrap;html=1;fillColor=none;dashed=1;strokeColor=#6c8ebf;" vertex="1" parent="1">
          <mxGeometry x="240" y="40" width="600" height="160" as="geometry" />
        </mxCell>
        <mxCell id="7oJZuq8xsSSL-06THOBG-4" style="edgeStyle=orthogonalEdgeStyle;rounded=0;orthogonalLoop=1;jettySize=auto;html=1;" edge="1" parent="1" source="7oJZuq8xsSSL-06THOBG-2" target="7oJZuq8xsSSL-06THOBG-3">
          <mxGeometry relative="1" as="geometry" />
        </mxCell>
        <mxCell id="7oJZuq8xsSSL-06THOBG-2" value="Input data" style="rounded=0;whiteSpace=wrap;html=1;" vertex="1" parent="1">
          <mxGeometry x="40" y="80" width="120" height="80" as="geometry" />
        </mxCell>
        <mxCell id="7oJZuq8xsSSL-06THOBG-6" style="edgeStyle=orthogonalEdgeStyle;rounded=0;orthogonalLoop=1;jettySize=auto;html=1;" edge="1" parent="1" source="7oJZuq8xsSSL-06THOBG-3" target="7oJZuq8xsSSL-06THOBG-5">
          <mxGeometry relative="1" as="geometry" />
        </mxCell>
        <mxCell id="7oJZuq8xsSSL-06THOBG-3" value="Preprocessing" style="rounded=0;whiteSpace=wrap;html=1;" vertex="1" parent="1">
          <mxGeometry x="280" y="80" width="120" height="80" as="geometry" />
        </mxCell>
        <mxCell id="7oJZuq8xsSSL-06THOBG-8" style="edgeStyle=orthogonalEdgeStyle;rounded=0;orthogonalLoop=1;jettySize=auto;html=1;" edge="1" parent="1" source="7oJZuq8xsSSL-06THOBG-5" target="7oJZuq8xsSSL-06THOBG-7">
          <mxGeometry relative="1" as="geometry" />
        </mxCell>
        <mxCell id="7oJZuq8xsSSL-06THOBG-5" value="Training loop" style="rounded=0;whiteSpace=wrap;html=1;" vertex="1" parent="1">
          <mxGeometry x="480" y="80" width="120" height="80" as="geometry" />
        </mxCell>
        <mxCell id="7oJZuq8xsSSL-06THOBG-7" value="Model saving" style="rounded=0;whiteSpace=wrap;html=1;" vertex="1" parent="1">
          <mxGeometry x="680" y="80" width="120" height="80" as="geometry" />
        </mxCell>
        <mxCell id="7oJZuq8xsSSL-06THOBG-10" value="Training" style="text;html=1;align=left;verticalAlign=middle;resizable=0;points=[];autosize=1;strokeColor=none;fillColor=none;" vertex="1" parent="1">
          <mxGeometry x="240" y="200" width="70" height="30" as="geometry" />
        </mxCell>
        <mxCell id="7oJZuq8xsSSL-06THOBG-12" value="Data" style="text;html=1;align=left;verticalAlign=middle;resizable=0;points=[];autosize=1;strokeColor=none;fillColor=none;" vertex="1" parent="1">
          <mxGeometry y="200" width="50" height="30" as="geometry" />
        </mxCell>
        <mxCell id="7oJZuq8xsSSL-06THOBG-13" style="edgeStyle=orthogonalEdgeStyle;rounded=0;orthogonalLoop=1;jettySize=auto;html=1;exitX=0.75;exitY=0;exitDx=0;exitDy=0;entryX=0.25;entryY=0;entryDx=0;entryDy=0;" edge="1" parent="1" source="7oJZuq8xsSSL-06THOBG-5" target="7oJZuq8xsSSL-06THOBG-5">
          <mxGeometry relative="1" as="geometry">
            <Array as="points">
              <mxPoint x="570" y="60" />
              <mxPoint x="510" y="60" />
            </Array>
          </mxGeometry>
        </mxCell>
      </root>
    </mxGraphModel>
  </diagram>
  <diagram id="XPHqSb15Jckobro27Rhd" name="Preprocessing">
    <mxGraphModel dx="2276" dy="844" grid="1" gridSize="10" guides="1" tooltips="1" connect="1" arrows="1" fold="1" page="1" pageScale="1" pageWidth="850" pageHeight="1100" math="0" shadow="0">
      <root>
        <mxCell id="0" />
        <mxCell id="1" parent="0" />
        <mxCell id="W253sDQrGf1WxeOZArnr-1" value="" style="rounded=0;whiteSpace=wrap;html=1;dashed=1;fillColor=none;" vertex="1" parent="1">
          <mxGeometry x="40" y="40" width="520" height="160" as="geometry" />
        </mxCell>
        <mxCell id="Ty8kFssBT3Hb_B-l-flz-1" value="Preprocessing" style="text;html=1;align=left;verticalAlign=middle;resizable=0;points=[];autosize=1;strokeColor=none;fillColor=none;" vertex="1" parent="1">
          <mxGeometry x="40" y="200" width="100" height="30" as="geometry" />
        </mxCell>
        <mxCell id="JICl6muXjmS9LORtU1Hx-4" style="edgeStyle=orthogonalEdgeStyle;rounded=0;orthogonalLoop=1;jettySize=auto;html=1;" edge="1" parent="1" source="JICl6muXjmS9LORtU1Hx-1" target="JICl6muXjmS9LORtU1Hx-3">
          <mxGeometry relative="1" as="geometry" />
        </mxCell>
        <mxCell id="JICl6muXjmS9LORtU1Hx-1" value="Read as a WAV file" style="rounded=0;whiteSpace=wrap;html=1;" vertex="1" parent="1">
          <mxGeometry x="80" y="80" width="120" height="80" as="geometry" />
        </mxCell>
        <mxCell id="JICl6muXjmS9LORtU1Hx-2" value="" style="endArrow=classic;html=1;rounded=0;entryX=0;entryY=0.5;entryDx=0;entryDy=0;" edge="1" parent="1" target="JICl6muXjmS9LORtU1Hx-1">
          <mxGeometry width="50" height="50" relative="1" as="geometry">
            <mxPoint y="120" as="sourcePoint" />
            <mxPoint x="450" y="410" as="targetPoint" />
          </mxGeometry>
        </mxCell>
        <mxCell id="JICl6muXjmS9LORtU1Hx-6" style="edgeStyle=orthogonalEdgeStyle;rounded=0;orthogonalLoop=1;jettySize=auto;html=1;entryX=0;entryY=0.5;entryDx=0;entryDy=0;" edge="1" parent="1" source="JICl6muXjmS9LORtU1Hx-3" target="JICl6muXjmS9LORtU1Hx-5">
          <mxGeometry relative="1" as="geometry" />
        </mxCell>
        <mxCell id="JICl6muXjmS9LORtU1Hx-3" value="Apply a Short-Time Fourier Transform" style="rounded=0;whiteSpace=wrap;html=1;" vertex="1" parent="1">
          <mxGeometry x="240" y="80" width="120" height="80" as="geometry" />
        </mxCell>
        <mxCell id="JICl6muXjmS9LORtU1Hx-5" value="Apply noise for 4 * 10 times" style="rounded=0;whiteSpace=wrap;html=1;" vertex="1" parent="1">
          <mxGeometry x="400" y="80" width="120" height="80" as="geometry" />
        </mxCell>
        <mxCell id="eM49AKjU2aHpF6BT_3Z6-1" value="" style="endArrow=classic;html=1;rounded=0;exitX=1;exitY=0.5;exitDx=0;exitDy=0;" edge="1" parent="1" source="JICl6muXjmS9LORtU1Hx-5">
          <mxGeometry width="50" height="50" relative="1" as="geometry">
            <mxPoint x="580" y="110.5" as="sourcePoint" />
            <mxPoint x="600" y="120" as="targetPoint" />
          </mxGeometry>
        </mxCell>
      </root>
    </mxGraphModel>
  </diagram>
</mxfile>
